<?xml version="1.0" encoding="iso-8859-1"?>
<!-- Generator: Adobe Illustrator 19.0.0, SVG Export Plug-In . SVG Version: 6.00 Build 0)  -->
<svg version="1.1" id="Capa_1" xmlns="http://www.w3.org/2000/svg" xmlns:xlink="http://www.w3.org/1999/xlink" x="0px" y="0px"
	 viewBox="0 0 468.293 468.293" style="enable-background:new 0 0 468.293 468.293;" xml:space="preserve">
<path style="fill:#D15241;" d="M309.89,208.687h29.345l-67.772-42.653c-0.892-0.549-1.201-1.697-0.709-2.62l4.155-7.774
	c0.412-0.771,0.091-1.729-0.7-2.098l-3.886-1.808c-1.525-0.709-3.34-0.145-4.194,1.305l-6.497,11.554
	c-1.918,3.258-1.116,7.433,1.873,9.748L309.89,208.687z"/>
<path style="fill:#E1E6E9;" d="M378.76,205.707l-44.457,2.248l-30.22-15.485c-12.613-6.494-24.165-14.861-34.216-24.914
	c-1.374-1.311-1.748-3.371-0.938-5.12l2.873-6.681c0.062-0.063,0.062-0.063,0.062-0.063c0.5-0.998,1.312-1.81,2.373-2.123
	L378.76,205.707z"/>
<path style="fill:#D5D6DB;" d="M334.303,207.955l-30.22-15.485c-12.613-6.494-24.165-14.861-34.216-24.914
	c-1.374-1.311-1.748-3.371-0.938-5.12l2.873-6.681c0.062-0.063,0.062-0.063,0.062-0.063c0.5-0.998,1.312-1.81,2.373-2.123
	L334.303,207.955z"/>
<g>
	<path style="fill:#2F4859;" d="M205.792,205.747v-25.73c0-1.825,1.48-3.305,3.305-3.305h8.152c1.825,0,3.305,1.48,3.305,3.305
		v25.73H205.792z"/>
	<path style="fill:#2F4859;" d="M146.438,211.894v-34.633c0-2.029-1.645-3.675-3.674-3.675h-11.853c-2.03,0-3.675,1.646-3.675,3.675
		v34.633H146.438z"/>
</g>
<path style="fill:#E56353;" d="M0,266.704c0,10.739,8.676,19.471,19.425,19.549l29.739,0.213l89.227,0.594l201.185,1.558
	l88.285,0.594l24.863,0.168c8.575,0.056,15.569-6.894,15.569-15.469v-21.6c0-27.138-22.004-49.142-49.142-49.142H22.788
	c-4.405,0-8.474,1.536-11.68,4.136c-3.744,3.049-6.288,7.533-6.77,12.678l-1.805,19.459L0,266.704z"/>
<path style="fill:#FCD462;" d="M2.533,239.442h7.689c2.477,0,4.641-1.681,5.235-4.091l5.301-21.343
	c0.852-3.408-1.726-6.703-5.235-6.703h-4.416c-3.744,3.049-6.288,7.533-6.77,12.678L2.533,239.442z"/>
<path style="fill:#D5D6DB;" d="M48.402,278.148c0,2.836,0.258,5.627,0.762,8.317l89.227,0.594c0.582-2.881,0.886-5.862,0.886-8.911
	c0-25.053-20.379-45.432-45.432-45.432S48.402,253.096,48.402,278.148z"/>
<path style="fill:#2F4859;" d="M132.554,278.151c0,21.393-17.318,38.711-38.715,38.711c-21.389,0-38.707-17.318-38.707-38.711
	c0-21.393,17.318-38.709,38.707-38.709C115.236,239.442,132.554,256.759,132.554,278.151z"/>
<path style="fill:#64798A;" d="M118.548,278.009c0,13.702-11.137,24.835-24.839,24.835c-13.416,0-24.546-11.134-24.546-24.835
	s11.13-24.55,24.546-24.55C107.411,253.46,118.548,264.308,118.548,278.009z"/>
<path style="fill:#EBF0F3;" d="M118.547,278.004c0,1.948-0.177,3.807-0.707,5.578c-3.366-0.708-6.818,0.266-8.677,3.453
	c-1.771,3.099-0.975,6.73,1.416,9.209c-2.657,2.479-5.843,4.339-9.387,5.49c-0.973-3.276-3.718-5.844-7.35-5.844
	c-3.63,0-6.373,2.568-7.348,5.933c-3.543-1.151-6.73-3.011-9.387-5.579c2.391-2.48,3.189-6.022,1.416-9.209
	c-1.859-3.188-5.312-4.161-8.678-3.453c-0.53-1.771-0.707-3.63-0.707-5.578c0-1.86,0.177-3.631,0.62-5.313
	c3.364,0.797,6.905-0.265,8.764-3.365c1.861-3.188,0.975-6.906-1.416-9.386c2.657-2.39,5.843-4.25,9.387-5.401
	c1.061,3.365,3.718,5.933,7.348,5.933c3.632,0,6.289-2.568,7.35-5.844c3.632,1.151,6.818,3.01,9.475,5.401
	c-2.48,2.568-3.275,6.198-1.505,9.297c1.771,3.011,5.4,4.073,8.766,3.365C118.369,274.373,118.547,276.144,118.547,278.004z"/>
<path style="fill:#D5D6DB;" d="M338.354,278.148c0,3.598,0.426,7.107,1.222,10.47l88.285,0.594
	c0.897-3.542,1.368-7.252,1.368-11.064c0-25.053-20.39-45.432-45.443-45.432C358.733,232.717,338.354,253.096,338.354,278.148z"/>
<path style="fill:#2F4859;" d="M422.503,278.151c0,21.393-17.318,38.711-38.715,38.711c-21.389,0-38.707-17.318-38.707-38.711
	c0-21.393,17.318-38.709,38.707-38.709C405.184,239.442,422.503,256.759,422.503,278.151z"/>
<path style="fill:#64798A;" d="M408.496,278.009c0,13.702-11.137,24.835-24.839,24.835c-13.416,0-24.546-11.134-24.546-24.835
	s11.13-24.55,24.546-24.55C397.359,253.46,408.496,264.308,408.496,278.009z"/>
<path style="fill:#EBF0F3;" d="M408.495,278.004c0,1.948-0.177,3.807-0.707,5.578c-3.366-0.708-6.818,0.266-8.677,3.453
	c-1.771,3.099-0.975,6.73,1.416,9.209c-2.657,2.479-5.843,4.339-9.387,5.49c-0.973-3.276-3.718-5.844-7.35-5.844
	c-3.63,0-6.373,2.568-7.348,5.933c-3.543-1.151-6.73-3.011-9.387-5.579c2.391-2.48,3.189-6.022,1.416-9.209
	c-1.859-3.188-5.312-4.161-8.678-3.453c-0.53-1.771-0.707-3.63-0.707-5.578c0-1.86,0.177-3.631,0.62-5.313
	c3.364,0.797,6.905-0.265,8.764-3.365c1.861-3.188,0.975-6.906-1.416-9.386c2.657-2.39,5.843-4.25,9.387-5.401
	c1.061,3.365,3.718,5.933,7.348,5.933c3.632,0,6.289-2.568,7.35-5.844c3.632,1.151,6.818,3.01,9.475,5.401
	c-2.48,2.568-3.275,6.198-1.505,9.297c1.771,3.011,5.4,4.073,8.766,3.365C408.318,274.373,408.495,276.144,408.495,278.004z"/>
<path style="fill:#D15241;" d="M179.786,224.945v22.429c0,17.333,14.057,31.39,31.39,31.39h94.803
	c6.135,0,11.113-4.978,11.113-11.113v-45.64c0-6.135-4.978-11.113-11.113-11.113H193.843
	C186.081,210.899,179.786,217.194,179.786,224.945z"/>
<path style="fill:#2F4859;" d="M188.77,231.879c4.125,2.758,8.284,4.136,12.453,4.136c4.159,0,8.317-1.379,12.443-4.136
	c1.031-0.684,1.311-2.074,0.628-3.105c-0.695-1.031-2.085-1.312-3.116-0.628c-6.703,4.473-13.216,4.473-19.919,0
	c-1.031-0.684-2.421-0.404-3.117,0.628C187.458,229.806,187.739,231.196,188.77,231.879z"/>
<ellipse transform="matrix(-0.2169 -0.9762 0.9762 -0.2169 306.2434 736.1373)" style="fill:#EBF0F3;" cx="448.376" cy="245.239" rx="22.222" ry="13.868"/>
<path style="fill:#FFFFFF;" d="M445.487,225.588c2.276,0.437,4.069,1.771,5.616,3.318c1.536,1.558,2.87,3.329,4.047,5.201
	c1.199,1.861,2.264,3.833,3.228,5.851c0.975,2.018,1.849,4.103,2.757,6.21c-0.235-2.287-0.785-4.54-1.547-6.714
	c-0.751-2.186-1.794-4.271-3.027-6.244c-1.256-1.95-2.746-3.811-4.595-5.291c-0.897-0.751-1.94-1.356-3.027-1.827
	C447.829,225.666,446.63,225.442,445.487,225.588z"/>
<g>
</g>
<g>
</g>
<g>
</g>
<g>
</g>
<g>
</g>
<g>
</g>
<g>
</g>
<g>
</g>
<g>
</g>
<g>
</g>
<g>
</g>
<g>
</g>
<g>
</g>
<g>
</g>
<g>
</g>
</svg>
